<?xml version="1.0" encoding="UTF-8" standalone="no"?>
<!-- Created with Inkscape (http://www.inkscape.org/) -->

<svg
   xmlns:dc="http://purl.org/dc/elements/1.1/"
   xmlns:cc="http://creativecommons.org/ns#"
   xmlns:rdf="http://www.w3.org/1999/02/22-rdf-syntax-ns#"
   xmlns:svg="http://www.w3.org/2000/svg"
   xmlns="http://www.w3.org/2000/svg"
   xmlns:sodipodi="http://sodipodi.sourceforge.net/DTD/sodipodi-0.dtd"
   xmlns:inkscape="http://www.inkscape.org/namespaces/inkscape"
   width="420mm"
   height="297mm"
   viewBox="0 0 420 297"
   version="1.1"
   id="svg8"
   inkscape:version="0.92.0 r15299"
   sodipodi:docname="Gyula Rimanoczy 5.svg">
  <defs
     id="defs2">
    <clipPath
       clipPathUnits="userSpaceOnUse"
       id="clipPath3562">
      <path
         inkscape:connector-curvature="0"
         id="path3564"
         d="m 237.5562154225922,-350.5929924466879 420.000002447765,0 0,297.00000173091871 -420.000002447765,0 z"
         style="color:#000000;clip-rule:nonzero;display:inline;overflow:visible;visibility:visible;opacity:1;isolation:auto;mix-blend-mode:normal;color-interpolation:sRGB;color-interpolation-filters:linearRGB;solid-color:#000000;solid-opacity:1;fill:#000000;fill-opacity:1;fill-rule:nonzero;stroke:none;stroke-width:1;stroke-linecap:butt;stroke-linejoin:round;stroke-miterlimit:10;stroke-dasharray:none;stroke-dashoffset:0;stroke-opacity:1;marker:none;color-rendering:auto;image-rendering:auto;shape-rendering:auto;text-rendering:auto;enable-background:accumulate" />
    </clipPath>
    <clipPath
       clipPathUnits="userSpaceOnUse"
       id="clipPath3668">
      <path
         inkscape:connector-curvature="0"
         id="path3670"
         d="m -379.5563700906095,-2315.686631613614 420.00000244776424,0 0,297.000001730919 -420.00000244776424,0 z"
         style="color:#000000;clip-rule:nonzero;display:inline;overflow:visible;visibility:visible;opacity:1;isolation:auto;mix-blend-mode:normal;color-interpolation:sRGB;color-interpolation-filters:linearRGB;solid-color:#000000;solid-opacity:1;fill:#000000;fill-opacity:1;fill-rule:nonzero;stroke:none;stroke-width:1;stroke-linecap:butt;stroke-linejoin:round;stroke-miterlimit:10;stroke-dasharray:none;stroke-dashoffset:0;stroke-opacity:1;marker:none;color-rendering:auto;image-rendering:auto;shape-rendering:auto;text-rendering:auto;enable-background:accumulate" />
    </clipPath>
    <clipPath
       clipPathUnits="userSpaceOnUse"
       id="clipPath3672">
      <path
         style="color:#000000;clip-rule:nonzero;display:inline;overflow:visible;visibility:visible;opacity:1;isolation:auto;mix-blend-mode:normal;color-interpolation:sRGB;color-interpolation-filters:linearRGB;solid-color:#000000;solid-opacity:1;fill:#000000;fill-opacity:1;fill-rule:nonzero;stroke:none;stroke-width:1;stroke-linecap:butt;stroke-linejoin:round;stroke-miterlimit:10;stroke-dasharray:none;stroke-dashoffset:0;stroke-opacity:1;marker:none;color-rendering:auto;image-rendering:auto;shape-rendering:auto;text-rendering:auto;enable-background:accumulate"
         d="m -379.5563700906095,-1895.342038389368 420.00000244776424,0 0,297.000001730919 -420.00000244776424,0 z"
         id="path3674"
         inkscape:connector-curvature="0" />
    </clipPath>
    <clipPath
       clipPathUnits="userSpaceOnUse"
       id="clipPath3676">
      <path
         inkscape:connector-curvature="0"
         id="path3678"
         d="m -379.5563700906095,-1507.262701787881 420.00000244776424,0 0,297.000001730919 -420.00000244776424,0 z"
         style="color:#000000;clip-rule:nonzero;display:inline;overflow:visible;visibility:visible;opacity:1;isolation:auto;mix-blend-mode:normal;color-interpolation:sRGB;color-interpolation-filters:linearRGB;solid-color:#000000;solid-opacity:1;fill:#000000;fill-opacity:1;fill-rule:nonzero;stroke:none;stroke-width:1;stroke-linecap:butt;stroke-linejoin:round;stroke-miterlimit:10;stroke-dasharray:none;stroke-dashoffset:0;stroke-opacity:1;marker:none;color-rendering:auto;image-rendering:auto;shape-rendering:auto;text-rendering:auto;enable-background:accumulate" />
    </clipPath>
    <clipPath
       clipPathUnits="userSpaceOnUse"
       id="clipPath3680">
      <path
         style="color:#000000;clip-rule:nonzero;display:inline;overflow:visible;visibility:visible;opacity:1;isolation:auto;mix-blend-mode:normal;color-interpolation:sRGB;color-interpolation-filters:linearRGB;solid-color:#000000;solid-opacity:1;fill:#000000;fill-opacity:1;fill-rule:nonzero;stroke:none;stroke-width:1;stroke-linecap:butt;stroke-linejoin:round;stroke-miterlimit:10;stroke-dasharray:none;stroke-dashoffset:0;stroke-opacity:1;marker:none;color-rendering:auto;image-rendering:auto;shape-rendering:auto;text-rendering:auto;enable-background:accumulate"
         d="m -379.5563700906095,-1128.109134732988 420.00000244776424,0 0,297.0000017309187 -420.00000244776424,0 z"
         id="path3682"
         inkscape:connector-curvature="0" />
    </clipPath>
    <clipPath
       clipPathUnits="userSpaceOnUse"
       id="clipPath3684">
      <path
         style="color:#000000;clip-rule:nonzero;display:inline;overflow:visible;visibility:visible;opacity:1;isolation:auto;mix-blend-mode:normal;color-interpolation:sRGB;color-interpolation-filters:linearRGB;solid-color:#000000;solid-opacity:1;fill:#000000;fill-opacity:1;fill-rule:nonzero;stroke:none;stroke-width:1;stroke-linecap:butt;stroke-linejoin:round;stroke-miterlimit:10;stroke-dasharray:none;stroke-dashoffset:0;stroke-opacity:1;marker:none;color-rendering:auto;image-rendering:auto;shape-rendering:auto;text-rendering:auto;enable-background:accumulate"
         d="m -379.5563700906095,-720.9993529876968 420.00000244776424,0 0,297.0000017309184 -420.00000244776424,0 z"
         id="path3686"
         inkscape:connector-curvature="0" />
    </clipPath>
    <clipPath
       clipPathUnits="userSpaceOnUse"
       id="clipPath3688">
      <path
         inkscape:connector-curvature="0"
         id="path3690"
         d="m -379.5563700906095,-318.5751270702144 420.00000244776424,0 0,297.00000173091876 -420.00000244776424,0 z"
         style="color:#000000;clip-rule:nonzero;display:inline;overflow:visible;visibility:visible;opacity:1;isolation:auto;mix-blend-mode:normal;color-interpolation:sRGB;color-interpolation-filters:linearRGB;solid-color:#000000;solid-opacity:1;fill:#000000;fill-opacity:1;fill-rule:nonzero;stroke:none;stroke-width:1;stroke-linecap:butt;stroke-linejoin:round;stroke-miterlimit:10;stroke-dasharray:none;stroke-dashoffset:0;stroke-opacity:1;marker:none;color-rendering:auto;image-rendering:auto;shape-rendering:auto;text-rendering:auto;enable-background:accumulate" />
    </clipPath>
  </defs>
  <sodipodi:namedview
     id="base"
     pagecolor="#1260ff"
     bordercolor="#ffffff"
     borderopacity="1"
     inkscape:pageopacity="0.8235294118"
     inkscape:pageshadow="2"
     inkscape:zoom="0.4872965768799101"
     inkscape:cx="793.7007874015752"
     inkscape:cy="561.2598425196852"
     inkscape:document-units="mm"
     inkscape:current-layer="layer1"
     showgrid="false"
     guidecolor="#25861d"
     guideopacity="1"
     guidehicolor="#ff9300"
     guidehiopacity="1"
     inkscape:pagecheckerboard="true"
     borderlayer="true"
     inkscape:showpageshadow="false"
     inkscape:window-width="1366"
     inkscape:window-height="705"
     inkscape:window-x="-8"
     inkscape:window-y="-8"
     inkscape:window-maximized="1"
     inkscape:object-nodes="true"
     inkscape:snap-smooth-nodes="true"
     showguides="false"
     inkscape:guide-bbox="true"
     inkscape:snap-global="true"
     inkscape:snap-intersection-paths="false">
    <sodipodi:guide
       position="290.2603337051589,661.9661127107861"
       orientation="1,0"
       id="guide5207"
       inkscape:locked="false" />
    <sodipodi:guide
       position="229.55636028612,655.593112730533"
       orientation="0,1"
       id="guide5209"
       inkscape:locked="false" />
    <sodipodi:guide
       position="631.0220735990201,594.5800772308148"
       orientation="0,1"
       id="guide5211"
       inkscape:locked="false" />
    <sodipodi:guide
       position="290.2603337051589,465.5904602196706"
       orientation="0.1613029044269116,0.9869049462959655"
       id="guide5213"
       inkscape:locked="false" />
    <sodipodi:guide
       position="607.2868217919489,375.3286743460637"
       orientation="-0.861807591507827,0.5072353252874628"
       id="guide5215"
       inkscape:locked="false" />
    <sodipodi:guide
       position="665.5562451760071,342.5929939917627"
       orientation="0,1"
       id="guide5217"
       inkscape:locked="false" />
    <sodipodi:guide
       position="736.3319314934413,594.5800772308148"
       orientation="0.2777870836026408,-0.9606426683130098"
       id="guide5228"
       inkscape:locked="false" />
    <sodipodi:guide
       position="501.2123389540885,431.1117885703562"
       orientation="1,0"
       id="guide5459"
       inkscape:locked="false" />
    <sodipodi:guide
       position="-541.3830035840579,1259.510650766163"
       orientation="-0.09810036546051126,0.9951765261985002"
       id="guide7346"
       inkscape:locked="false" />
    <sodipodi:guide
       position="-310.8722900747222,1341.451540497387"
       orientation="-0.3349426234688884,0.9422385255251339"
       id="guide7348"
       inkscape:locked="false" />
    <sodipodi:guide
       position="-541.3830805291509,1259.510650766186"
       orientation="0,1"
       id="guide7350"
       inkscape:locked="false" />
    <sodipodi:guide
       position="126.1646179385071,1259.51068305139"
       orientation="-0.02888838158610021,-0.9995826436114904"
       id="guide7356"
       inkscape:locked="false" />
    <sodipodi:guide
       position="-237.5040396451161,1309.09033152132"
       orientation="1,0"
       id="guide7360"
       inkscape:locked="false" />
    <sodipodi:guide
       position="-222.2664493324619,1303.158923547129"
       orientation="1,0"
       id="guide7364"
       inkscape:locked="false" />
    <sodipodi:guide
       position="-105.7415721837395,1291.126945928793"
       orientation="1,0"
       id="guide7372"
       inkscape:locked="false" />
    <sodipodi:guide
       position="-99.45838492630197,1287.795387628283"
       orientation="1,0"
       id="guide7376"
       inkscape:locked="false" />
    <sodipodi:guide
       position="-93.50400610938911,1287.048942597445"
       orientation="1,0"
       id="guide7380"
       inkscape:locked="false" />
  </sodipodi:namedview>
  <metadata
     id="metadata5">
    <rdf:RDF>
      <cc:Work
         rdf:about="">
        <dc:format>image/svg+xml</dc:format>
        <dc:type
           rdf:resource="http://purl.org/dc/dcmitype/StillImage" />
        <dc:title></dc:title>
        <dc:date>2016</dc:date>
        <dc:creator>
          <cc:Agent>
            <dc:title>Lazur URH - Tamás Pétery</dc:title>
          </cc:Agent>
        </dc:creator>
        <dc:description>Made this for a subject in Architecture I MSc at the UNIVERSITY OF PÉCS 
Faculty of Engineering and Information Technology (PTE MIK) in the autumn semester of 2016-2017 as part of my architect studies (MSc). 
Image shows the schematics of the iconic building of Gyula Rimanóczy: 
tobacco factory, Nyíregyháza, Hungary (1951).</dc:description>
      </cc:Work>
    </rdf:RDF>
  </metadata>
  <g
     inkscape:label="Layer 1"
     inkscape:groupmode="layer"
     id="layer1">
    <g
       transform="translate(379.55637009061,1895.342038389368)"
       clip-path="url(#clipPath3672)"
       id="g3704">
      <path
         style="color:#000000;clip-rule:nonzero;display:inline;overflow:visible;visibility:visible;opacity:1;isolation:auto;mix-blend-mode:normal;color-interpolation:sRGB;color-interpolation-filters:linearRGB;solid-color:#000000;solid-opacity:1;fill:#ffffff;fill-opacity:1;fill-rule:nonzero;stroke:none;stroke-width:3.543307066;stroke-linecap:round;stroke-linejoin:round;stroke-miterlimit:4.0476899147;stroke-dasharray:none;stroke-dashoffset:0;stroke-opacity:1;marker:none;color-rendering:auto;image-rendering:auto;shape-rendering:auto;text-rendering:auto;enable-background:accumulate"
         d="m -394.5563835890756,-1906.842057529879 450.00002944469633,0 0,320.00004001194 -450.00002944469503,0 z"
         id="path3706"
         inkscape:connector-curvature="0" />
      <path
         inkscape:export-ydpi="58.25687408447266"
         inkscape:export-xdpi="58.25687408447266"
         style="color:#000000;clip-rule:nonzero;display:inline;overflow:visible;visibility:visible;opacity:1;isolation:auto;mix-blend-mode:normal;color-interpolation:sRGB;color-interpolation-filters:linearRGB;solid-color:#000000;solid-opacity:1;fill:#c8c8c8;fill-opacity:1;fill-rule:nonzero;stroke:none;stroke-width:3.543307066;stroke-linecap:round;stroke-linejoin:round;stroke-miterlimit:4.0476899147;stroke-dasharray:none;stroke-dashoffset:0;stroke-opacity:1;marker:none;color-rendering:auto;image-rendering:auto;shape-rendering:auto;text-rendering:auto;enable-background:accumulate"
         d="m -387.5563961248622,-1903.342075748507 436.00005451626674,0 0,313.000076449196 -436.00005451626685,0 z"
         id="path3708"
         inkscape:connector-curvature="0" />
      <g
         transform="matrix(1.276333563926476,0,0,1.276333563926476,-1298.317344579665,-2188.709779408534)"
         id="g3710">
        <path
           style="color:#000000;clip-rule:nonzero;display:inline;overflow:visible;visibility:visible;opacity:1;isolation:auto;mix-blend-mode:normal;color-interpolation:sRGB;color-interpolation-filters:linearRGB;solid-color:#000000;solid-opacity:1;fill:#ffffff;fill-opacity:1;fill-rule:nonzero;stroke:none;stroke-width:0.1000000015;stroke-linecap:round;stroke-linejoin:round;stroke-miterlimit:4;stroke-dasharray:none;stroke-dashoffset:0;stroke-opacity:1;marker:none;paint-order:markers fill stroke;color-rendering:auto;image-rendering:auto;shape-rendering:auto;text-rendering:auto;enable-background:accumulate"
           d="m 868.3299420616797,267.3015153127406 -77.5275675455729,18.0324910481771 -2.379211511e-4,71.9248484673716 -29.6378942315988,1.8112509467458 3.07e-11,40.7915158237092 160.9086725173023,-13.5022571649097 20.7020955403648,0.1286743164061 0,0.7684285481771 47.1004842122396,0.3560506184896 0,-44.9378255208334 -37.474715169271,5.4704671223959 0,-1.0893391927083 -7.8713541666665,0 0,2.238106282552 -1.7544148763021,0.2563151041667 0,1.8779215494793 -5.4554809570311,0.3007568359375 z"
           id="path3712"
           inkscape:connector-curvature="0"
           sodipodi:nodetypes="cccccccccccccccccc" />
        <path
           inkscape:connector-curvature="0"
           id="path3714"
           transform="scale(0.2645833333333333,0.2645833333333333)"
           d="m 3224.55078125,1002.013671874999 -47.4375,11.595703125001 2.34765625,17.310546875 -96.603515625,22.642578124999 -9.259765625,-14.650390624999 -39.294921875,9.607421874999 2.525400051931,15.831271325182 -47.968759426931,11.242947424819 0,2.833984375 293.017578125,-68.154296875 260.748046875,319.095703125 0.703125,-0.0390625 -4.462890625,-5.50390625 c -0.718824916618,-3.745787414005 -2.160699526301,-7.149083929186 -4.89453125,-10.3203125 -1.235595430971,-1.433283365136 -3.298727195518,-2.173105122003 -4.66796875,-1.470703125 l -13.380859375,-16.501953125 c -0.07576982252,-3.276205570057 -1.263200231962,-6.951547703843 -3.541015625,-10.150390625 -2.449039750456,-3.439301311832 -5.152394802828,-4.60350314618 -7.794921875,-3.828125 l -25.431640625,-31.361328125001 c 0.669280110627,-3.658671971348 -0.256929254537,-9.240971729894 -3.763671875,-13.779296874999 -2.949727705962,-3.817452510215 -7.440600507809,-5.120233674985 -10.9296875,-4.33984375 l -49.353515625,-60.86328125 c 0.143561128772,-9.031721112452 -5.1960790218,-19.311263503517 -10.919921875,-25.69140625 -5.793058996518,-6.457295262029 -12.862957319354,-10.786260029633 -19.939453125,-12.363281250001 l -102.37109375,-126.242187499999 -50.411489365491,11.815540172464 z m -90.87109375,58.998046875001 -10.4296875,2.328124999999 0,7.265625000001 10.4296875,-2.283203125 z m -15.8203125,3.531249999999 -10.4296875,2.328125000001 0,7.244140624999 10.4296875,-2.328124999999 z m 197.146484374999,2.222656250001 0,15.951171875 5.902343750001,6.642578125 0,-15.66015625 z m 32.460937500001,38.130859375 0,14.355468749999 4.7890625,5.388671875001 0,-14.119140625 z m -32.460937500001,25.673828125 0,15.951171875 5.902343750001,5.482421875 0,-15.66015625 z m 59.017578125001,5.51953125 0,13.048828125 3.964843749999,4.460937499999 0,-12.853515625 z m 22.12890625,25.992187499999 0,11.9609375 3.333984375,3.75390625 0,-11.798828124999 z m -48.685546875,0.234375000001 0,14.355468749999 4.7890625,4.447265625001 0,-14.119140625001 z m 26.556640625,25.970703124999 0,13.048828125 3.964843749999,3.681640625 0,-12.853515624999 z m -59.017578125001,6.087890625001 0,15.951171874999 5.902343750001,4.320312500001 0,-15.66015625 z m 99.869140625001,11.7578125 0,11.033203124999 9.337890625,9.58984375 0,-10.574218749999 z m -18.72265625,3.794921875 0,11.960937499999 3.333984375,3.09765625 0,-11.796874999999 z m 46.58984375,6.869140624999 0,9.662109375 2.21875,2.496093750001 0,-9.552734375 z m -15.5234375,2.619140625 0,10.425781250001 3.623046875,3.720703124999 0,-10.248046875 z m -79.751953125,0.3203125 0,14.355468750001 4.7890625,3.505859374999 0,-14.119140624999 z m 67.408203125,8.462890625 0,11.033203125 9.337890625,8.669921875 0,-10.574218749999 z m 40.46484375,3.396484375001 0,9.041015625 1.9453125,2.1875 0,-8.9453125 z m -81.31640625,8.888671875 0,13.05078125 3.964843749999,2.900390625 0,-12.853515625 z m 92.396484375,4.123046875 0,8.496093749999 1.716796875,1.933593750001 0,-8.412109375 z m -51.544921875,5.658203124999 0,11.033203125 9.337890625,7.750000000001 0,-10.57421875 z m 27.8671875,5.177734375001 0,9.66015625 2.21875,2.060546874999 0,-9.552734374999 z m 33.49609375,0.697265625 0,8.01171875 1.529296875,1.720703124999 0,-7.9375 z m -80.0859375,1.6328125 0,11.9609375 3.333984375,2.44140625 0,-11.796875 z m -81.146484375001,0.406249999999 0,15.951171875 5.902343750001,3.160156250001 0,-15.66015625 z m 112.212890625001,2.937500000001 0,10.42578125 3.623046875,3.007812499999 0,-10.248046875 z m 28.12109375,6.642578125 0,9.041015625 1.9453125,1.806640625 0,-8.947265625001 z m -40.46484375,4.572265625 0,11.033203125 9.337890625,6.830078125 0,-10.572265625001 z m -67.408203125,4.826171875 0,14.353515625 4.7890625,2.564453124999 0,-14.119140625 z m 118.953125,1.433593749999 0,8.496093750001 1.716796875,1.595703124999 0,-8.412109375 z m 9.818359375,9.599609375001 0,8.011718749999 1.529296875,1.419921875 0,-7.9375 z m -102.21484375,4.492187499999 0,13.048828125001 3.964843749999,2.12109375 0,-12.853515625 z m 367.23828125,0.423828125001 -178.017578125,25.986328125 0,2.650390624999 178.017578125,-25.986328125 z m -298.51953125,0.98046875 0,9.662109375 2.21875,1.623046874999 0,-9.552734374999 z m -27.8671875,0.310546875 0,11.033203125 9.337890625,5.912109375 0,-10.574218750001 z m 12.34375,8.421874999999 0,10.425781250001 3.623046875,2.292968749999 0,-10.24609375 z m 28.12109375,1.10546875 0,9.041015625 1.9453125,1.421875 0,-8.9453125 z m -59.1875,1.693359375001 0,11.9609375 3.333984375,1.787109375 0,-11.798828125 z m 70.267578125,6.95703125 0,8.49609375 1.716796875,1.255859375 0,-8.412109375 z m -51.544921875,3.888671875 0,11.033203124999 9.337890625,4.9921875 0,-10.574218749999 z m 61.36328125,3.777343749999 0,8.01171875 1.529296875,1.119140625001 0,-7.9375 z m -161.232421875001,1.742187500001 0,15.951171875 5.902343750001,2 0,-15.662109375 z m 328.410156250001,9.23046875 -8.08203125,0.41796875 0,4.904296874999 8.08203125,-0.400390625 z m -14.228515625,0.73828125 -7.98046875,0.412109375 0,4.873046874999 7.98046875,-0.396484374999 z m -14.05078125,0.7265625 -7.87890625,0.408203124999 0,4.84375 7.87890625,-0.392578124999 z m -172.39453125,0.0546875 0,9.662109374999 2.21875,1.185546875001 0,-9.552734375 z m 158.521484375,0.6640625 -7.779296875,0.404296874999 0,4.8125 7.779296875,-0.386718749999 z m -13.69921875,0.7109375 -7.685546875,0.398437499999 0,4.78125 7.685546875,-0.380859374999 z m -240.09765625,0.46875 0,14.35546875 4.7890625,1.62109375 0,-14.119140625 z m 67.408203125,3.953124999999 0,11.033203125001 9.337890625,4.074218749999 0,-10.574218749999 z m 40.46484375,1.558593750001 0,9.04296875 1.9453125,1.039062499999 0,-8.945312499999 z m 107.904296875,1.478515625 -64.744140625,3.169921875 0,16.158203124999 64.744140625,-2.671874999999 z m -136.025390625,2.955078124999 0,10.42578125 3.623046875,1.580078125 0,-10.248046875 z m -53.1953125,0.357421875001 0,13.048828125 3.964843749999,1.34375 0,-12.855468750001 z m 118.53515625,0.1484375 -7.55859375,0.369140625 0,16.0546875 7.55859375,-0.3125 z m -26.138671875,1.529296875 0,8.496093749999 1.716796875,0.919921875001 0,-8.412109375 z m -477.560546875,0.121093749999 -112.017578125,7.109375000001 0,5.8125 418.974609375,48.2265625 0,27.013671875 15.7109375,0.570312499999 0,-25.775390625 4.0625,0.466796875001 0,4.486328125 28.75390625,2.912109375 0,40.605468749999 26.56640625,-0.970703124999 0,-36.9453125 29.171875,2.953124999999 0,32.923828125 21.212890625,-0.775390624999 0,-30.001953125 63.705078125,6.44921875 0,-3.310546875 -252.1171875,-30.943359375 48.994140625,-1.332031250001 203.123046875,29.107421875001 0,-5.99609375 7.55859375,-0.1015625 0,-16.111328125 -7.55859375,0.16015625 0,14.845703125 -203.123046875,-38.607421875 -151.212890625,5.462890624999 8.97265625,1.12890625 -244.7109375,-30.03515625 93.93359375,-5.748046874999 z m 487.37890625,5.613281250001 0,8.01171875 1.529296875,0.81640625 0,-7.935546875 z m -80.0859375,1.171875 0,11.962890625 3.333984375,1.12890625 0,-11.796875 z m 18.72265625,7.1328125 0,11.033203125 9.337890625,3.154296875 0,-10.57421875 z m 228.541015625,4.972656249999 -8.08203125,0.294921875001 0,4.904296874999 8.08203125,-0.277343749999 z m -14.228515625,0.51953125 -7.98046875,0.291015625001 0,4.873046875 7.98046875,-0.273437500001 z m -14.048828125,0.511718750001 -7.880859375,0.287109374999 0,4.843750000001 7.880859375,-0.271484375001 z m -13.875,0.505859375 -7.779296875,0.28515625 0,4.810546875 7.779296875,-0.265625 z m -13.69921875,0.5 -7.685546875,0.28125 0,4.78125 7.685546875,-0.263671875001 z m -144.822265625,3.773437499999 0,9.660156250001 2.21875,0.75 0,-9.552734375001 z m 120.501953125,0.181640625 -64.744140625,2.271484375001 0,16.15625 64.744140625,-1.771484375001 z m -70.685546875,2.478515625001 -7.55859375,0.265625 0,16.052734375 7.55859375,-0.20703125 z m -37.21875,2.21484375 0,9.041015625 1.9453125,0.656249999999 0,-8.945312499999 z m 11.080078125,4.287109374999 0,8.49609375 1.716796875,0.580078125001 0,-8.412109375001 z m -51.544921875,2.121093750001 0,11.033203125 9.337890625,2.234375 0,-10.574218750001 z m 61.36328125,1.677734375 0,8.013671875 1.529296875,0.515624999999 0,-7.937499999999 z m -448.61328125,1.097656249999 0,39.640625000001 49.68359375,1.80859375 0,-36.419921875 z m 399.59375,0.78515625 0,10.425781250001 3.623046875,0.867187499999 0,-10.248046875 z m -303.96875,8.894531250001 0,33.44140625 7.5390625,0.275390624999 0,-32.953124999999 z m 13.728515625,1.390625 0,32.55078125 7.146484375,0.259765624999 0,-32.087890625 z m 13.017578125,1.31640625 0,31.70703125 6.78125,0.248046875 0,-31.267578125001 z m 12.359375,1.251953125 0,30.90625 6.4453125,0.234375 0,-30.488281250001 z m 481.060546875,0.84765625 -8.08203125,0.169921874999 0,4.904296875001 8.08203125,-0.15234375 z m -14.228515625,0.30078125 -7.98046875,0.16796875 0,4.873046875 7.98046875,-0.150390625001 z m -455.083984375,0.041015625 0,30.144531249999 6.134765625,0.22265625 0,-29.74609375 z m 441.03515625,0.255859375 -7.880859375,0.166015625 0,4.84375 7.880859375,-0.150390625001 z m -13.875,0.29296875 -7.779296875,0.166015625 0,4.810546875 7.779296875,-0.146484375001 z m -13.69921875,0.291015625 -7.685546875,0.162109375 0,4.78125 7.685546875,-0.144531250001 z m -402.275390625,0.29296875 0,29.417968749999 5.84375,0.212890625001 0,-29.039062500001 z m 377.955078125,0.154296875 -64.744140625,1.373046874999 0,16.156250000001 64.744140625,-0.873046875 z m -335.875,4.105468749999 0,26.689453125001 29,1.056640625 0,-24.810546875 z m 404.244140625,20.943359375001 c -4.006280507957,-0.03023607931 -8.560284780001,1.235717109747 -11.621093750001,3.072265625 l 0,27.736328125 23.423828125001,0.10546875 0,-27.6640625 c -3.371828389973,-1.832974080343 -7.409710016264,-3.216845099164 -11.802734375,-3.25 z m -68.369140625,4.943359375 -78.244140625,0.572265625 0,28.13671875 78.244140625,0.486328124999 z m 51.89453125,2.898437499999 -7.880859375,0.044921875 0,4.84375 7.880859375,-0.029296875 z m -13.875,0.080078125 -7.779296875,0.044921875 0,4.8125 7.779296875,-0.02734375 z m -13.69921875,0.080078125 -7.685546875,0.044921875 0,4.783203125 7.685546875,-0.029296875 z m 213.048828125,32.560546875 -498.671875,145.203125 29.552734375,2.568359375 476.724609375,-146.839843750001 z"
           style="color:#000000;clip-rule:nonzero;display:inline;overflow:visible;visibility:visible;opacity:1;isolation:auto;mix-blend-mode:normal;color-interpolation:sRGB;color-interpolation-filters:linearRGB;solid-color:#000000;solid-opacity:1;fill:#000000;fill-opacity:1;fill-rule:nonzero;stroke:none;stroke-width:0.3779527545;stroke-linecap:round;stroke-linejoin:round;stroke-miterlimit:4;stroke-dasharray:none;stroke-dashoffset:0;stroke-opacity:1;marker:none;paint-order:markers fill stroke;color-rendering:auto;image-rendering:auto;shape-rendering:auto;text-rendering:auto;enable-background:accumulate"
           sodipodi:nodetypes="cccccccccccccsccsccsccsccccccccccccccccccccccccccccccccccccccccccccccccccccccccccccccccccccccccccccccccccccccccccccccccccccccccccccccccccccccccccccccccccccccccccccccccccccccccccccccccccccccccccccccccccccccccccccccccccccccccccccccccccccccccccccccccccccccccccccccccccccccccccccccccccccccccccccccccccccccccccccccccccccccccccccccccccccccccccccccccccccccccccccccccccccccccccccccccccccccccccccccccccccccccccccccccccccccccccccccccccccscccccccccccccccccccccccccccccccccccccccccccccccccccccccccsccccsccccccccccccccccccccccccc" />
      </g>
    </g>
  </g>
</svg>
